<svg style="position: absolute; width: 0; height: 0; overflow: hidden;" version="1.1" xmlns="http://www.w3.org/2000/svg" xmlns:xlink="http://www.w3.org/1999/xlink">
<defs>
<symbol id="icon-bookmark" viewBox="0 0 20 20">
<title>bookmark</title>
<path d="M14 2v17l-4-4-4 4v-17c0-0.553 0.585-1.020 1-1h6c0.689-0.020 1 0.447 1 1z"></path>
</symbol>
<symbol id="icon-chevron-thin-right" viewBox="0 0 20 20">
<title>chevron-thin-right</title>
<path d="M13.25 10l-7.141-7.42c-0.268-0.27-0.268-0.707 0-0.979 0.268-0.27 0.701-0.27 0.969 0l7.83 7.908c0.268 0.271 0.268 0.709 0 0.979l-7.83 7.908c-0.268 0.271-0.701 0.27-0.969 0s-0.268-0.707 0-0.979l7.141-7.417z"></path>
</symbol>
<symbol id="icon-aircraft-take-off" viewBox="0 0 20 20">
<title>aircraft-take-off</title>
<path d="M19.87 6.453c0.119 0.257 0.127 1.29-4.884 3.642l-4.913 2.306c-1.71 0.803-4.191 1.859-5.285 2.151-0.766 0.204-1.497-0.316-1.497-0.316s-2.206-1.975-2.792-2.419c-0.585-0.444-0.535-0.67 0.215-0.91 0.467-0.149 3.13 0.493 4.265 0.78 1.339-0.8 2.562-1.486 3.141-1.798-1.396-1.033-4.008-2.962-4.841-3.55-0.799-0.565 0.010-0.768 0.010-0.768 0.368-0.099 1.162-0.228 1.562-0.144 2.721 0.569 7.263 2.071 7.611 2.186 0.832-0.436 2.128-1.092 2.922-1.465 2.075-0.974 4.327-0.037 4.486 0.305z"></path>
</symbol>
<symbol id="icon-chat" viewBox="0 0 20 20">
<title>chat</title>
<path d="M5.8 12.2v-6.2h-3.8c-1.1 0-2 0.9-2 2v6c0 1.1 0.9 2 2 2h1v3l3-3h5c1.1 0 2-0.9 2-2v-1.82c-0.064 0.014-0.132 0.021-0.2 0.021l-7-0.001zM18 1h-9c-1.1 0-2 0.9-2 2v8h7l3 3v-3h1c1.1 0 2-0.899 2-2v-6c0-1.1-0.9-2-2-2z"></path>
</symbol>
<symbol id="icon-home" viewBox="0 0 20 20">
<title>home</title>
<path d="M18.672 11h-1.672v6c0 0.445-0.194 1-1 1h-4v-6h-4v6h-4c-0.806 0-1-0.555-1-1v-6h-1.672c-0.598 0-0.47-0.324-0.060-0.748l8.024-8.032c0.195-0.202 0.451-0.302 0.708-0.312 0.257 0.010 0.513 0.109 0.708 0.312l8.023 8.031c0.411 0.425 0.539 0.749-0.059 0.749z"></path>
</symbol>
<symbol id="icon-key" viewBox="0 0 20 20">
<title>key</title>
<path d="M17.691 4.725c-0.503-2.977-3.22-4.967-6.069-4.441s-5.256 2.816-4.753 5.795c0.107 0.641 0.408 1.644 0.763 2.365l-5.175 7.723c-0.191 0.285-0.299 0.799-0.242 1.141l0.333 1.971c0.058 0.342 0.372 0.572 0.7 0.514l1.516-0.281c0.328-0.059 0.744-0.348 0.924-0.639l2.047-3.311 0.018-0.022 1.386-0.256 2.39-3.879c0.785 0.139 1.912 0.092 2.578-0.031 2.848-0.526 4.087-3.67 3.584-6.649zM15.166 6.252c-0.784 1.17-1.584 0.346-2.703-0.475-1.119-0.818-2.135-1.322-1.352-2.492s2.326-1.455 3.447-0.635c1.12 0.819 1.391 2.432 0.608 3.602z"></path>
</symbol>
<symbol id="icon-location-pin" viewBox="0 0 20 20">
<title>location-pin</title>
<path d="M10 2.009c-2.762 0-5 2.229-5 4.99 0 4.774 5 11 5 11s5-6.227 5-11c0-2.76-2.238-4.99-5-4.99zM10 9.76c-1.492 0-2.7-1.209-2.7-2.7s1.208-2.7 2.7-2.7c1.49 0 2.699 1.209 2.699 2.7s-1.209 2.7-2.699 2.7z"></path>
</symbol>
<symbol id="icon-magnifying-glass" viewBox="0 0 20 20">
<title>magnifying-glass</title>
<path d="M17.545 15.467l-3.779-3.779c0.57-0.935 0.898-2.035 0.898-3.21 0-3.417-2.961-6.377-6.378-6.377s-6.186 2.769-6.186 6.186c0 3.416 2.961 6.377 6.377 6.377 1.137 0 2.2-0.309 3.115-0.844l3.799 3.801c0.372 0.371 0.975 0.371 1.346 0l0.943-0.943c0.371-0.371 0.236-0.84-0.135-1.211zM4.004 8.287c0-2.366 1.917-4.283 4.282-4.283s4.474 2.107 4.474 4.474c0 2.365-1.918 4.283-4.283 4.283s-4.473-2.109-4.473-4.474z"></path>
</symbol>
<symbol id="icon-map" viewBox="0 0 20 20">
<title>map</title>
<path d="M19.447 3.718l-6-3c-0.281-0.141-0.613-0.141-0.895 0l-5.63 2.815-5.606-1.869c-0.306-0.102-0.64-0.051-0.901 0.138s-0.415 0.49-0.415 0.811v13.001c0 0.379 0.214 0.725 0.553 0.894l6 3c0.141 0.070 0.294 0.106 0.447 0.106s0.307-0.035 0.447-0.106l5.63-2.814 5.606 1.869c0.305 0.1 0.64 0.049 0.901-0.139s0.415-0.49 0.415-0.81v-13.002c0.001-0.379-0.213-0.725-0.552-0.894zM8 5.231l4-2v11.763l-4 2v-11.763zM2 4l4 1.333v11.661l-4-2v-10.994zM18 16.227l-4-1.334v-11.662l4 2v10.996z"></path>
</symbol>
<symbol id="icon-star" viewBox="0 0 20 20">
<title>star</title>
<path d="M10 1.3l2.388 6.722h6.412l-5.232 3.948 1.871 6.928-5.439-4.154-5.438 4.154 1.87-6.928-5.233-3.948h6.412l2.389-6.722z"></path>
</symbol>
<symbol id="icon-disney-logo" viewBox="0 0 192.756 192.756">
<title>disney</title>
<path d="M96.954 66.126a5.674 5.674 0 0 1 3.451 1.38c1.312 1.242 1.656 3.313 1.035 4.97-2.414 4.969-8.155 8.288-12.078 9.386-2.347.552-5.314.552-7.454-.276-1.036.621-1.91 2.628-3.175 1.794-1.831-1.43-.246-3.668-1.303-5.256-.218-.327-.767-.351-1.043-.886-1.45-3.175.345-6.212 2.346-8.627 3.336-3.722 12.907-7.869 18.221-2.485zM85.842 68.61c-1.864.345-3.969 1.156-5.107 2.485-1.139 1.328-1.863 2.623-1.173 4.003 2.416-1.794 3.589-4.279 6.281-5.797-.001-.277.413-.484-.001-.691zm11.251.691c-4.763-.415-8.352 3.175-11.734 6.625-.207.552-1.449 1.173-.483 1.794 4.556.414 8.904-.896 12.217-3.934.967-.897 1.655-2.07 1.174-3.313-.207-.482-.694-.965-1.174-1.172zM138.364 89.868c2.209 5.384 4.072 13.872 0 19.049-1.104 1.242-3.036 2.387-4.278 1.449-4.556-3.657-6.487-8.903-9.317-13.597-.414-.207-.414.346-.621.553-1.035 4.762.897 10.974-2.346 14.7-1.242.207-2.404-.432-2.83-1.656-1.588-4.9.067-10.008.481-14.908.967-2.485 1.381-5.383 3.521-7.247 3.451 1.38 5.107 5.246 7.107 8.076 1.451 2.139 2.623 4.555 4.279 6.487 1.449-.621.736-2.515.691-3.658-.554-4.486-1.796-8.627-2.97-12.906-.067-1.104-.688-2.968.483-3.658 3.11 1.381 4.419 4.624 5.8 7.316zM117.521 88.211c0 1.036-.828 2.33-1.52 2.485-6.625 1.035-14.01.414-20.221 2.484-.207.759.69.897 1.173 1.104 5.313.828 10.905 1.035 16.082 2.347 2.737.695 3.728 3.935 3.935 6.626.127 2.122-.689 4.693-2.761 6.143-5.106 3.244-12.905 3.105-18.083.139-1.979-1.11-3.865-2.898-4.003-5.107.012-1.754.76-3.135 2.002-3.796 4.97-2.002 11.112-.896 15.392 1.656.274 1.381-1.22 1.306-1.935 1.795-4.763 2.761-8.351-3.104-12.768-.967-.621.414-1.07 1.569-.345 1.933 5.452 2.416 11.526.69 16.909-.828.621-.207 1.381-.828 1.449-1.449-.207-2.209-2.691-2.691-4.279-3.312-4.693-1.173-9.869-1.173-14.908-1.656-.966-.207-2.197-.88-2.484-1.656-.552-1.656-.552-3.934.69-5.314 6.418-5.66 16.149-5.176 24.293-3.658.553.203 1.174.41 1.382 1.031zM87.361 90.834c.621 6.625.966 12.769.828 19.739-.138.896-1.173 1.104-1.863 1.449-1.104.207-2.531-.028-2.968-.621-1.587-2.555-1.035-6.004-1.173-9.11.207-4.899.138-10.214 1.519-14.77.264-.662 1.035-1.242 1.656-.829 1.656.829 1.932 2.486 2.001 4.142zM164.041 89.868c.332.558.679 1.42 0 1.794-3.106 1.38-7.315.759-10.905 1.173-.966.828-1.726 2.208-1.382 3.451.347.207.656.522 1.037.482 2.207.139 5.521-1.035 6.972 1.035.354.616-.048 2.916-1.035 2.968-2.693.347-7.121-.338-8.422.347-1.656 1.104-1.519 3.243-2.14 4.97 1.174.759 2.403-.018 3.795-.208 2.556-.414 5.386-1.173 7.938-.621.483.897 1.174 1.864.69 2.968-4.351 3.451-9.963 6.988-15.942 4.486-2.244-1.006-3.244-4.417-2.484-7.314.482-2.071 2.621-4.072 1.311-6.281-.207-.967.346-1.794 1.174-2.001 2.277 0 1.793-2.83 2.967-4.142-1.311-1.449-4.623-1.38-4.278-4.279 1.588-.828 3.521-.552 5.313-.828 4.072-.829 8.627-1.312 12.771-.829.825.166 1.93 1.794 2.62 2.829zM65.482 74.132c6.369 5.206 14.632 14.08 13.597 24.294-1.243 8.076-9.801 14.149-17.048 16.082-7.04 2.07-15.874 1.863-23.053.207-.483 1.312-.966 2.898-2.484 3.451-.966.345-2.209.138-2.968-.483-2.139-2.002-.414-5.867-3.52-7.108-6.074-2.554-12.631-7.593-15.736-13.804-.414-1.242.069-2.484.828-3.45 4.763-3.796 10.767-5.314 16.772-6.488.345.138.207-.345.483-.483.345-4.141.483-8.352 1.794-12.079.299-.523 1.035-.69 1.519-.345 3.796 2.898 2.001 8.352 3.658 12.285 7.247.345 14.494.69 20.222 4.763 1.933 1.587 2.404 4.618 1.794 6.35-.609 1.729-2.622 2.968-4.486 3.104-1.243 0-3.589.121-3.451-.827.138-.949 4.222-2.502 2.968-3.797-1.803-1.861-10.824-2.968-16.415-3.658-.69-.138-1.323.069-1.323.828-.138 5.245-.552 11.042.345 16.082.069.346.483.76.829.827 9.869 1.588 20.291.69 28.021-4.969 3.589-2.897 4.763-6.972 4.141-11.457-3.106-12.492-16.15-20.016-26.848-24.847-10.421-4.555-21.948-6.902-34.302-6.28-1.967.144-5.084.823-5.107 1.519-.023.696 3.531.477 3.105 1.794-.425 1.316-4.037.535-5.107.207-1.07-.328-.966-1.864-.69-2.83 2.692-4.762 10.204-5.147 13.597-5.314 18.772-.484 36.925 6.665 48.865 16.426zM31.663 92.629c-4.763.069-9.801.552-14.218 2.208-.897.345-2.002 1.311-1.312 2.485 1.794 2.415 4.36 4.398 6.764 5.797 2.404 1.397 5.591 3.175 8.49 3.59.69-4.487.69-8.904.621-13.528-.277-.138-.001-.414-.345-.552zM174.323 86.348c-.207 6.004-5.799 9.732-5.799 15.736.207.207.347.483.621.347 4.488-4.901 8.904-11.872 15.461-13.942 1.728-.138 3.289 1.363 3.935 2.485 2.278 4.555 1.728 10.974-1.448 15.115-3.277 4.065-8.974 8.144-15.459 7.453-2.691 6.626-4.558 13.597-5.593 20.844-.552 1.449-1.862.138-2.69-.138-5.59-4.417-1-16.11-.621-17.602.379-1.488 1.875-4.998 2.969-7.937-2.623-4.692-.967-10.353 1.172-14.701 1.656-2.899 3.936-5.798 6.627-8.006.342.001.618.07.825.346zm11.114 7.454c-.828-.138-1.174.967-1.863 1.174-3.174 3.589-6.35 7.178-7.938 11.457 2.141.276 3.934-1.104 5.799-1.863 3.174-2.002 5.176-5.313 4.969-9.11-.139-.623-.691-1.106-.967-1.658z"/>
</symbol>
</defs>
</svg>
